<mxfile host="app.diagrams.net" modified="2023-06-14T03:32:40.180Z" agent="Mozilla/5.0 (Windows NT 10.0; Win64; x64) AppleWebKit/537.36 (KHTML, like Gecko) Chrome/114.0.0.0 Safari/537.36" version="21.3.7" etag="ZXNU0jBuhLaaVNntZj0Z" type="github">
  <diagram name="Page-1" id="xNFK6A-znZSvLiPGIAyL">
    <mxGraphModel>
      <root>
        <mxCell id="0" />
        <mxCell id="1" parent="0" />
      </root>
    </mxGraphModel>
  </diagram>
</mxfile>
